Coordinates
version=1
nRows=38
nColumns=12
inDegrees=yes

Units are S.I. units (second, meters, Newtons, ...)
Angles are in degrees

endheader
time	SC_y	SC_z	SC_x	AC_y	AC_z	AC_x	GH_y	GH_z	GH_yy	EL_x	PS_y
       0.0               -14.6          14.16          55.49          30.12          2.473         -7.123         -34.82          76.37         -74.75          96.89          91.45
   0.03433               -14.6          14.16          55.48          30.13           2.47          -7.12         -34.82          76.37         -74.73          96.87          91.45
   0.06866              -14.61          14.16          55.48          30.13          2.468         -7.116         -34.83          76.36          -74.7          96.86          91.46
     0.103              -14.61          14.16          55.47          30.14          2.465         -7.112         -34.83          76.36         -74.67          96.85          91.46
    0.1373              -14.62          14.16          55.46          30.14          2.462         -7.108         -34.83          76.35         -74.64          96.83          91.46
    0.1716              -14.62          14.16          55.46          30.15          2.459         -7.104         -34.84          76.34         -74.61          96.81          91.47
     0.206              -14.63          14.16          55.45          30.15          2.455         -7.099         -34.84          76.34         -74.58           96.8          91.47
    0.2403              -14.63          14.16          55.44          30.16          2.451         -7.094         -34.85          76.33         -74.54          96.78          91.47
    0.2746              -14.64          14.16          55.43          30.16          2.447         -7.089         -34.85          76.32          -74.5          96.76          91.48
    0.3089              -14.64          14.16          55.42          30.17          2.443         -7.083         -34.86          76.31         -74.46          96.74          91.48
    0.3433              -14.65          14.16          55.41          30.18          2.439         -7.077         -34.87           76.3         -74.42          96.72          91.48
    0.3776              -14.66          14.16           55.4          30.18          2.434          -7.07         -34.87          76.29         -74.37          96.69          91.49
    0.4119              -14.67          14.16          55.39          30.19          2.429         -7.063         -34.88          76.28         -74.32          96.67          91.49
    0.4463              -14.67          14.16          55.38           30.2          2.423         -7.055         -34.89          76.27         -74.26          96.64           91.5
    0.4806              -14.68          14.16          55.36          30.21          2.417         -7.047          -34.9          76.26          -74.2          96.61          91.51
    0.5149              -14.69          14.16          55.35          30.22           2.41         -7.038          -34.9          76.24         -74.14          96.57          91.51
    0.5492               -14.7          14.17          55.33          30.23          2.403         -7.028         -34.91          76.23         -74.07          96.54          91.52
    0.5836              -14.72          14.17          55.31          30.24          2.395         -7.017         -34.93          76.21         -73.99           96.5          91.53
    0.6179              -14.73          14.17           55.3          30.26          2.386         -7.005         -34.94          76.19          -73.9          96.46          91.53
    0.6522              -14.74          14.17          55.27          30.27          2.377         -6.992         -34.95          76.17         -73.81          96.41          91.54
    0.6866              -14.76          14.17          55.25          30.29          2.367         -6.978         -34.96          76.15         -73.71          96.36          91.55
    0.7209              -14.77          14.17          55.23          30.31          2.355         -6.962         -34.98          76.13          -73.6           96.3          91.56
    0.7552              -14.79          14.17           55.2          30.33          2.342         -6.945          -35.0           76.1         -73.48          96.24          91.58
    0.7895              -14.81          14.17          55.17          30.35          2.329         -6.926         -35.02          76.07         -73.34          96.17          91.59
    0.8239              -14.84          14.17          55.13          30.37          2.313         -6.905         -35.04          76.04         -73.19          96.09           91.6
    0.8582              -14.86          14.17          55.09           30.4          2.296         -6.881         -35.06           76.0         -73.02          96.01          91.62
    0.8925              -14.89          14.17          55.05          30.43          2.276         -6.855         -35.09          75.96         -72.83          95.91          91.64
    0.9268              -14.92          14.18           55.0          30.46          2.254         -6.825         -35.12          75.92         -72.61           95.8          91.66
    0.9612              -14.96          14.18          54.95           30.5           2.23         -6.791         -35.15          75.87         -72.37          95.68          91.68
    0.9955               -15.0          14.18          54.88          30.54          2.202         -6.753         -35.19          75.81          -72.1          95.54          91.71
      1.03              -15.05          14.18          54.81          30.59           2.17         -6.709         -35.24          75.74         -71.78          95.38          91.74
     1.064               -15.1          14.18          54.73          30.65          2.133         -6.659         -35.29          75.66         -71.43           95.2          91.78
     1.098              -15.17          14.19          54.63          30.72          2.091         -6.601         -35.35          75.57         -71.01          94.99          91.82
     1.133              -15.24          14.19          54.52          30.79          2.042         -6.533         -35.41          75.47         -70.53          94.74          91.86
     1.167              -15.32          14.19           54.4          30.88          1.984         -6.455         -35.49          75.35         -69.97          94.46          91.92
     1.201              -15.42           14.2          54.24          30.99          1.916         -6.362         -35.59          75.21          -69.3          94.12          91.98
     1.236              -15.54          14.21          54.06          31.11          1.836         -6.251          -35.7          75.04         -68.51          93.72          92.06
      1.27              -15.68          14.21          53.85          31.26          1.739         -6.119         -35.83          74.84         -67.56          93.24          92.15
